<svg id="Avatar_Glyph" enable-background="new 0 0 128 128" viewBox="0 0 128 128" xmlns="http://www.w3.org/2000/svg"><g><g><path d="m98.63 101.15c-.26-2.06-.51-4.13-.77-6.19-.18-1.42-.3-2.85-.75-4.23-1.03-3.15-3.23-5.44-6.15-6.9-4.51-2.26-9.02-4.53-13.53-6.79-.52-.26-1.08-.5-1.59-.8-1.96-1.16-2.86-3.74-3.44-5.81 4.26-2.71 7.21-7.09 8.87-11.81 2.88-.25 4.95-2.23 5.96-4.86.95-2.47 1.88-7.44-2.47-6.7.53-4.33.91-8.71.79-13.07-.06-2.01-.16-4.16-.88-6.06-.78-2.06-2.3-4.95-4.5-5.8 2.03-5.87-3.78-8.85-8.64-9.43-6.37-.77-13.04.83-18.9 3.25-4.23 1.75-7.57 4.78-9.42 9-1.62 3.69-2.08 7.81-1.96 11.81.1 3.45.62 6.9 1.47 10.24-4.14-.23-2.72 5.03-1.76 7.23 1.05 2.42 3.1 4.17 5.77 4.4 1.82 5.14 4.94 9.31 8.86 11.82-.52 1.89-1.29 4.02-2.81 5.35-.48.42-1.03.66-1.59.94-2.23 1.12-4.46 2.24-6.69 3.36-2.29 1.15-4.57 2.29-6.86 3.44-2.49 1.25-4.61 2.78-5.95 5.32-1.6 3.03-1.63 6.8-2.05 10.13-.28 2.26-.63 4.42 1.04 6.27.85.94 2.07 1.52 3.15 2.14 1.21.69 2.44 1.34 3.68 1.97 9.55 4.76 20.24 7.31 30.92 6.4 5.96-.51 11.8-2.01 17.33-4.26 2.89-1.18 5.69-2.56 8.4-4.1 2.47-1.42 4.85-3.05 4.47-6.26zm-31.61-86.91c2.84-.12 6.13.01 8.6 1.61 1.24.8 2.12 1.99 2.42 3.44.19.93.42 4.27-1.37 3.65-.85-.3-.62-1.1-.55-1.79.08-.77.03-1.56-.32-2.26-.56-1.1-1.71-1.71-2.84-2.07-1.41-.45-2.93-.57-4.4-.59-.72-.01-1.89.29-2.35-.44-.4-.66.06-1.51.81-1.55zm-4.77.53c.62-.2 1.86-.47 2.45-.22 1.16.5.48 1.75-.45 1.93-.55.11-1.47.38-2.05.24-1-.24-.99-1.74.05-1.95zm-13.86 42.57c0-.85-1.5-.69-1.99-.77-.97-.18-1.84-.68-2.51-1.4-.96-1.04-1.45-2.46-1.79-3.81-.13-.51-.46-1.55-.16-2.07.69-1.22 3.24.98 4.2.87.9-.11.87-.97.87-1.66-.01-1.32.23-2.63.23-3.94h.01c-.16-3.58-.26-8.32 1.98-11.38 1.26-1.71 3.19-1.96 5.14-1.43 2.44.67 4.58 2.1 7.06 2.72 2.16.54 3.99.38 6.12-.27 2.36-.73 4.52-2.26 6.97-2.65 4.13-.65 5.52 3.44 5.99 6.75.31 2.12.16 4.21.24 6.34.04 1.14.23 2.28.24 3.43.01.71-.21 1.65.58 2.01.84.39 2.29-.76 3.14-.97.32-.08.99-.28 1.27.01.56.59-.11 2.38-.28 2.95-.56 1.8-1.48 3.61-3.36 4.3-.6.22-1.16.17-1.77.28-.91.16-1 .88-1.29 1.65-1.47 3.99-3.96 7.75-7.51 10.17-4.53 3.09-10.23 3.3-14.92.42-4.17-2.57-6.97-6.97-8.46-11.55zm15.57 32.1c-5.49 0-9.97-5.2-10.28-11.84 1.92-1.43 3.06-3.96 3.71-6.16 4.19 2.01 9.03 2 13.22-.01.65 2.23 1.8 4.75 3.71 6.17-.32 6.65-4.8 11.84-10.36 11.84z"/></g></g></svg>