<svg id="Avatar_Glyph" enable-background="new 0 0 128 128" viewBox="0 0 128 128" xmlns="http://www.w3.org/2000/svg"><g><g><path d="m98.63 101.15c-.4-3.17-1-8.08-1-8.08-.32-2.57-1.41-4.88-3.06-6.65v-.09c0-.06-.01-.12-.02-.19-.05-.54-.32-1.02-.64-1.58-.84-1.48-2.4-4.22-1.3-11.49.77-5.07-1.33-6.36-3.18-7.5-2.07-1.28-4.03-2.49-1.85-10.97 4.33-16.87-3.47-34.51-7.79-35.87-.71-.21-1.49-.14-2.31.21-.36.14-.68-.04-.84-.38l-.02.01c-.63-1.32-3.75-3.85-7.26-5.04-5.74-1.94-14.68-1.52-24.64 11.52-.29.36-7.16 9.01-4.46 19.55 2.49 9.73-.39 20.34-.62 21.16-.36.85-3.64 9.01-.53 13.44.55.79.89 1.83 1.03 3.07l-3.66 1.84c-3.34 1.67-5.62 5.02-6.11 8.96 0 0-.6 4.91-1 8.08-.24 2.01.72 3.99 2.46 5.06 10.54 6.42 21.36 9.7 32.17 9.74 10.81-.04 21.63-3.32 32.17-9.74 1.74-1.07 2.7-3.05 2.46-5.06zm-30.73-83.33c.18-.52.74-.81 1.27-.64 1.68.56 2.7 1.2 2.74 1.22.47.3.61.92.31 1.38-.29.47-.91.59-1.38.32-.03-.02-.89-.55-2.3-1.02-.53-.17-.81-.74-.64-1.26zm-20.59 8.86c6.76-9.69 14.06-10.88 18.99-10.17.54.08.92.58.85 1.13-.08.55-.58.93-1.14.85-4.37-.63-10.88.48-17.07 9.33-.31.45-.94.55-1.39.25-.45-.32-.56-.94-.24-1.39zm16.65 62.76c-5.49 0-9.97-5.2-10.28-11.84 1.93-1.43 3.07-3.98 3.72-6.2 4.17 2.09 9.04 2.08 13.19-.04.65 2.24 1.8 4.8 3.73 6.24-.32 6.65-4.8 11.84-10.36 11.84zm16.16-38.5c-.12.1-.21.22-.27.35v.02c-.05.11-.09.22-.1.34v.02c-.35 7.13-3.76 15.05-10.6 18.17-6.46 2.95-13.29-.26-17.08-5.83-2.46-3.62-3.73-7.99-3.94-12.34-.03-.09-.05-.18-.07-.27-.01-.04-.02-.09-.04-.13-.04-.08-.1-.15-.16-.22-.03-.02-.05-.05-.07-.08l-.03-.03c-1.04-.84-2.23-2.15-2.42-3.87 3.56-1.57 9.33-4.69 12.39-9.57 1.84-2.92 3.87-3.17 6.22-3.47 2.1-.27 4.42-.57 6.53-2.8.62 3.48 2.5 9.62 8.32 13.31.01 0 .02.01.03.02.11.07.23.11.36.13.05.01.1 0 .14 0 .08.01.16.01.24 0 .1-.02.2-.07.29-.12.02-.02.04-.02.06-.03h.01c0-.01 0-.01.01-.01 1.09-.73 1.58-.67 1.7-.63.15.04.29.2.42.51 1.11 2.4.45 4.6-1.94 6.53z"/></g></g></svg>