<svg id="Avatar_Glyph" enable-background="new 0 0 128 128" viewBox="0 0 128 128" xmlns="http://www.w3.org/2000/svg"><g><g><path d="m98.63 101.15c-.25-1.99-.5-3.98-.74-5.96-.16-1.3-.26-2.62-.61-3.89-.56-2.04-1.66-3.94-3.2-5.4-1.13-1.06-2.46-1.74-3.83-2.43 2.72-1.14 6.01-2.99 7.4-5.62.01-.01.01-.01.01-.02.04-.13.08-.25.11-.38.01-.37-.19-.78-.53-.95-.01-.01-.01-.01-.01-.01-.13-.04-.26-.07-.39-.11-2.44-.15-5.05-.64-7.35-1.49-1.5-.55-2.9-1.44-3.73-2.85-1.9-3.21-.76-7.75-.09-11.15 1.21-6.15 2.78-12.27 2.67-18.58-.09-5.21-1.63-10.32-4.58-14.62-3.32-4.84-8.16-8.41-14.07-9.26-.31-.31-2.05-.26-2.56-.31-.64-.06-1.27-.11-1.91-.15-2.5-.15-5.04.09-7.52.46-5.01.75-9.37 3.33-12.65 7.15-2.89 3.36-4.94 7.38-5.9 11.7-1.23 5.52-.61 11.27.41 16.78.64 3.42 1.05 6.85 1.06 10.33.01 3.42-.63 6.75-.78 10.15-1.99 3-4.16 6.25-6.95 8.58-.29.24-.62.53-.98.67-.38.14-.79.05-1.15.25-.69.38-.69 1.28-.07 1.71.71.49 1.86.58 2.68.72-3.37 3.68-3.29 8.97-3.88 13.64-.17 1.37-.28 2.65.35 3.94.7 1.44 1.97 2.19 3.31 2.97 3.07 1.79 6.27 3.37 9.57 4.69 12.49 4.97 26.01 5.55 38.8 1.35 3.73-1.22 7.34-2.8 10.8-4.64 2.97-1.59 6.78-3.27 6.31-7.27zm-15.77-66.6c.26 1.06.76 2.78.44 3.86-.28.97-1.6.99-1.93.05-.17-.49-.08-1.17-.15-1.7-.08-.62-.39-1.37-.34-1.99.08-1.11 1.68-1.34 1.98-.22zm-15.16-12.29c.38-1.6 3.28-.06 4.08.29 2.44 1.06 4.74 2.51 6.65 4.38 1.08 1.06 2.4 2.45 2.97 3.88.3.76-.22 1.7-1.14 1.45-.72-.2-1.11-1.36-1.52-1.92-1.69-2.34-4.06-4.13-6.63-5.42-.94-.47-1.92-.89-2.93-1.22-.68-.23-1.74-.42-1.48-1.44zm-3.74 67.18c-.01 0-.01 0-.02 0-.08-1.11-2.32-1.24-3.11-1.58-1.38-.6-2.58-1.53-3.49-2.72-1.85-2.42-2.45-5.58-2.57-8.55 1.39-1.59 2.24-3.8 2.73-5.56 2.11 1.43 4.08 2.85 6.79 2.67 2.41-.16 4.22-1.62 6.13-2.92.62 2.37 1.78 5.26 3.89 6.83-.31 6.64-4.79 11.83-10.35 11.83zm19.96-36.99c-.69 1.42-1.77 2.63-3.17 3.37-.83.44-1.58.51-1.83 1.51-.56 2.29-.69 4.51-2.27 6.42-1.05 1.26-2.53 2.11-3.87 3.02-1.67 1.13-3.34 2.26-5.01 3.39-1.89 1.28-3.96 2.06-6.22 1.07-1.32-.58-2.53-1.61-3.72-2.41-3.42-2.32-7.7-4.33-8.64-8.74-.19-.91-.31-1.84-.53-2.74-.27-1.12-1.33-1.18-2.22-1.73-1.37-.85-3-2.59-3.18-4.27-.18-1.69 2.77.09 3.02-1.61.19-.39.03-1.17.03-1.58 0-.91 0-1.82 0-2.72 0-1.17.57-1.36 1.73-1.22 1.82.21 3.65.35 5.48.38 3.19.05 6.51-.15 9.61-.98 2.16-.58 3.04-2.35 4.11-4.1.37.74.7 1.51 1.11 2.24.66 1.17 1.68 1.14 2.85 1.14 1.18 0 2.54.12 3.08-1.21.31-.78.34-1.74.48-2.57 1.06 1.23 2.32 2.49 3.86 3.11.53.21 1.24.14 1.64.52.3.29.39.93.47 1.31.28 1.36.28 2.8.22 4.18-.03.82-.26 3.22 1.37 2.35.42-.05 1.61-.22 1.94.21.31.41-.16 1.28-.34 1.66z"/></g></g></svg>