<svg id="Avatar_Glyph" enable-background="new 0 0 128 128" viewBox="0 0 128 128" xmlns="http://www.w3.org/2000/svg"><g><g><path d="m98.63 101.15c-.26-2.06-.51-4.13-.77-6.19-.18-1.42-.3-2.85-.75-4.23-1.03-3.15-3.23-5.44-6.15-6.9-4.51-2.26-9.02-4.53-13.53-6.79-.52-.26-1.08-.5-1.59-.8-1.99-1.18-2.9-3.81-3.47-5.92 3.41-2.04 6.29-5.32 8.24-9.5 2.51-.63 4.78-2.28 6.02-4.56 1.17-2.15 2.46-8.69-1.69-8.47.1-.71.22-1.65.33-2.75 3.21-1.24 6.99-2.45 8.84-5.62 1.14-1.94.79-4.11-.46-5.91-.83-1.2-1.93-2.2-3.09-3.09-.33-.25-.51-.53-.81-.81-.27-.25-.66-.38-.93-.63-.47-.44-.73-1.12-.89-1.73-.69-2.58-1.19-5.22-1.79-7.82-.28-1.24-.62-2.35-1.44-3.36-1.27-1.56-3.09-2.63-4.89-3.47-4.09-1.9-8.75-2.98-13.22-3.54-4.93-.62-10.29.67-14.97 2.2-3.46 1.13-8.29 2.99-9.47 6.86-.78 2.58-1.23 5.32-1.83 7.95-.09.39-.16.78-.27 1.16-.13.49-.32.96-.61 1.39-.38.57-1.06.88-1.52 1.36-1.03 1.08-2.33 1.87-3.27 3.08-.7.9-1.27 1.95-1.44 3.09-.7 4.78 4.98 7.1 8.5 8.58.58.24 1.16.49 1.74.73.23.92.44 1.76.65 2.51-4.76-1.52-4.17 5.26-2.96 7.83 1.18 2.51 3.57 4.33 6.24 5.01 1.95 4.18 4.83 7.46 8.24 9.5-.71 2.65-1.84 5.1-4.35 6.36-2.2 1.1-4.4 2.21-6.6 3.31-2.34 1.18-4.69 2.35-7.03 3.53-2.39 1.2-4.46 2.66-5.81 5.07-1.71 3.05-1.75 6.85-2.17 10.24-.27 2.19-.68 4.32.83 6.19.79.98 1.94 1.56 3.01 2.17 1.32.76 2.66 1.48 4.02 2.16 9.55 4.76 20.23 7.31 30.92 6.4 5.96-.51 11.8-2.01 17.33-4.26 2.89-1.18 5.69-2.56 8.4-4.1 2.45-1.39 4.84-3.02 4.46-6.23zm-23.7-87.22c.46-1.64 3.15.03 3.95.52 1.35.83 2.52 1.95 3.37 3.29 1.12 1.74 1.54 3.85 2.11 5.81.17.58.53 1.31.52 1.93-.03 1.42-1.68 1.13-2.03.07-.5-1.51-.86-3.08-1.32-4.61-.49-1.62-1.4-3.02-2.71-4.09-.67-.55-1.42-1-2.23-1.34-.71-.29-1.99-.48-1.66-1.58zm-6.66-1.32c.26-1.27 1.92-.63 2.73-.46.84.17 2.72.27 2.29 1.61-.36 1.11-1.81.53-2.6.37-.81-.17-2.68-.23-2.42-1.52zm-26.2 20.96c-1.3 0 .65 8.61.84 9.5-2.79-1.16-9.14-3.36-7.48-7.45.54-1.34 1.7-2.42 2.8-3.31 1.23-1 2.49-1.94 3.86-2.73 2.81-1.63 5.74-3.03 8.8-4.11 5.98-2.12 12.38-2.93 18.68-2.03 3.15.45 6.24 1.3 9.2 2.48 1.56.62 3.08 1.33 4.56 2.11 1.49.79 3.15 1.61 4.42 2.72 1.9 1.65 5.92 3.83 4.97 6.96-.85 2.8-4.76 4.32-7.24 5.16.14-1.86.21-3.73.19-5.6-.02-1.43.36-3.73-1.02-4.53-3.12-1.82-6.64-3.15-10.12-4.07-6.76-1.8-13.86-1.75-20.61.04-4.16 1.08-8.12 2.77-11.85 4.86zm6.93 25.97c-.19-.57-.97-.61-1.45-.76-.77-.23-1.5-.57-2.17-1.02-2.18-1.45-3.27-3.98-3.13-6.57.2-3.89 4.34 1.67 5.75 1.13.62-.24.63-.82.61-1.37-.03-.89-.03-1.79-.02-2.68.02-2.07.1-4.13.25-6.19.14-1.89.32-3.79.63-5.66.2-1.22.4-2.53.94-3.65 1.27 1.7 3.44 2.51 5.44 2.96 3.56.79 7.32.85 10.93 1.42 2.82.44 5.65.97 8.39 1.8 1.66.5 3.54 1.09 4.86 2.26h.01c0 .01.02.02.02.03 1.19 1.06.7 3.36.71 4.8 0 1.33 0 2.65-.02 3.98-.01.69-.26 1.9.41 2.36.89.61 1.53-.42 2.01-1.01.42-.51.83-1.3 1.47-1.52 1.28-.44 1.17 1.33 1.13 2.13-.1 2.12-.96 4.11-2.64 5.44-.98.78-2.06 1.15-3.22 1.52-.92.29-1.08 1.1-1.5 1.9-.67 1.31-1.47 2.56-2.4 3.7-3.28 4.05-8.28 6.69-13.57 6.07-6.23-.73-11.02-5.56-13.44-11.07zm14.96 29.9c-5.49 0-9.97-5.2-10.28-11.84 1.97-1.46 3.12-4.09 3.76-6.33 4.17 1.88 8.95 1.88 13.12 0 .65 2.26 1.8 4.87 3.76 6.33-.32 6.65-4.8 11.84-10.36 11.84z"/></g></g></svg>