<?xml version="1.0" encoding="utf-8"?>
<!-- Generator: Adobe Illustrator 24.1.1, SVG Export Plug-In . SVG Version: 6.00 Build 0)  -->
<svg version="1.1" id="Avatar_Glyph" xmlns="http://www.w3.org/2000/svg" xmlns:xlink="http://www.w3.org/1999/xlink" x="0px"
	 y="0px" viewBox="0 0 128 128" style="enable-background:new 0 0 128 128;" xml:space="preserve">
<g>
	<g>
		<g>
			<g>
				<path d="M62.2,93.3c-0.3-2.5-0.8-6.5-0.8-6.5c-0.4-3.2-2.2-5.9-4.9-7.2l-12.6-6.3c-1.6-1-2.5-3.5-2.9-5
					c6-2.2,10.2-7.9,10.2-14.6V53c1.7-0.1,3.9-1,4.5-5.1c0.4-2.7,0-4.4-1.1-5.2c-0.8-0.6-2-0.7-3.3-0.2V40c0-8.6-7-15.6-15.6-15.6
					h-2.2c-8.6,0-15.6,7-15.6,15.6v2.4c-1.4-0.4-2.5-0.4-3.3,0.2c-1.2,0.9-1.5,2.6-1.1,5.2c0.6,4.1,2.8,5,4.5,5.1v0.6
					c0,6.6,4.1,12.3,10,14.5l0,0.1c-0.4,1.5-1.2,4.1-2.9,5l-12.6,6.3c-2.7,1.3-4.5,4-4.9,7.2c0,0-0.5,3.9-0.8,6.5
					c-0.2,1.6,0.6,3.2,2,4.1c8.5,5.2,17.2,7.8,25.8,7.8c8.7,0,17.4-2.7,25.8-7.8C61.6,96.5,62.4,94.9,62.2,93.3L62.2,93.3z
					 M51.2,44.2c1.1-0.4,1.9-0.5,2.4-0.2c0.6,0.4,0.8,1.8,0.5,3.7c-0.4,3-1.7,3.7-2.9,3.7V44.2z M17.8,51.4
					c-1.2-0.1-2.4-0.8-2.9-3.7c-0.3-2-0.1-3.3,0.5-3.7c0.4-0.3,1.3-0.3,2.4,0.2L17.8,51.4z M19.4,53.7V40c0-7.7,6.3-14,14-14h2.2
					c7.7,0,14,6.3,14,14v13.6c0,7.7-6.3,14-14,14h-2.2C25.7,67.7,19.4,61.4,19.4,53.7z M34.3,83.9c-4.4,0-8-4.2-8.3-9.5
					c1.8-1.3,2.7-3.8,3.2-5.7l0,0c1.3,0.4,2.7,0.6,4.1,0.6h2.2c1.3,0,2.6-0.2,3.8-0.5c0.5,1.9,1.4,4.3,3.2,5.6
					C42.4,79.7,38.8,83.9,34.3,83.9z"/>
			</g>
			<g>
				<path d="M44.1,57.3c-0.1,0.3-0.5,1.7-1.7,2.8c-0.9,0.8-2.5,1.7-5.1,1.1c0,0-0.1,0-0.1,0c-0.1,0-1.6-0.6-2.8-1.8
					c-1.1,1.2-2.7,1.7-2.8,1.8c0,0-0.1,0-0.1,0c-0.6,0.1-1.2,0.2-1.7,0.2c-1.8,0-2.9-0.8-3.7-1.5c-1.1-1.1-1.5-2.5-1.5-2.6
					c-0.1-0.3,0.1-0.7,0.4-0.9c0.3-0.2,0.7-0.1,1,0.1c0.3,0.3,1.5,0.4,3.4-1.2c1.3-1.1,2.5-1.6,3.7-1.4c0.5,0.1,1,0.3,1.3,0.5
					c0.3-0.2,0.7-0.5,1.3-0.5c1.1-0.2,2.4,0.3,3.7,1.4c0.8,0.7,1.6,1.1,2.3,1.3c0.7,0.2,1.1-0.1,1.1-0.1c0.3-0.2,0.7-0.3,0.9-0.1
					C44,56.7,44.2,57,44.1,57.3z"/>
			</g>
			<g>
				<path d="M47.3,41.4h-11c-0.4,0-0.8,0.4-0.8,0.8v1.4h-2.4v-1.4c0-0.4-0.4-0.8-0.8-0.8h-11c-0.4,0-0.8,0.4-0.8,0.8v6
					c0,3.2,2.6,5.8,5.8,5.8h1c3.2,0,5.8-2.6,5.8-5.8v-3h2.4v3c0,3.2,2.6,5.8,5.8,5.8h1c3.2,0,5.8-2.6,5.8-5.8v-6
					C48.1,41.8,47.8,41.4,47.3,41.4z M22.6,47.4c-0.2,0-0.4-0.1-0.5-0.2c-0.3-0.3-0.4-0.8-0.1-1.1l2.9-3.3c0.3-0.3,0.8-0.4,1.1-0.1
					c0.3,0.3,0.4,0.8,0.1,1.1l-2.9,3.3C23,47.3,22.8,47.4,22.6,47.4z M27.5,46l-1.8,2c-0.2,0.2-0.4,0.3-0.6,0.3
					c-0.2,0-0.4-0.1-0.5-0.2c-0.3-0.3-0.4-0.8,0-1.1l1.8-2c0.3-0.3,0.8-0.4,1.1-0.1C27.8,45.2,27.8,45.7,27.5,46z M37.5,47.4
					c-0.2,0-0.4-0.1-0.5-0.2c-0.3-0.3-0.4-0.8-0.1-1.1l2.9-3.3c0.3-0.3,0.8-0.4,1.1-0.1c0.3,0.3,0.4,0.8,0.1,1.1l-2.9,3.3
					C38,47.3,37.7,47.4,37.5,47.4z M42.5,46l-1.8,2c-0.2,0.2-0.4,0.3-0.6,0.3c-0.2,0-0.4-0.1-0.5-0.2c-0.3-0.3-0.4-0.8,0-1.1l1.8-2
					c0.3-0.3,0.8-0.4,1.1-0.1C42.8,45.2,42.8,45.7,42.5,46z"/>
			</g>
		</g>
	</g>
	<g>
		<path d="M121.5,93.3c-0.2-1.7-0.4-3.4-0.6-5.2c-0.1-1.2-0.3-2.3-0.7-3.4c-0.9-2.5-2.7-4.2-5-5.4c-3.7-1.9-7.4-3.7-11.1-5.6
			c-0.6-0.3-1.1-0.5-1.6-1c-1.2-1.2-1.9-3-2.3-4.7l1.2-0.8c1.1,1.4,2.6,2.6,4.4,2.6c2.1,0,3-1.8,3.2-3.7c1.3,0.3,3,0.5,4-0.6
			c0.9-1,1-2.7,0.4-3.9c1.1-0.3,2.3-0.9,2.7-2c0.4-1.2-0.3-2.6-1.1-3.5c1.9-0.9,3.6-2.7,1.5-4.5c1.8-1.5,3.5-4.1,1.2-6
			c0.7-0.7,1.4-1.7,1.3-2.8c-0.2-1-1-1.7-1.9-2.1c0.8-2,0.1-3.8-1.9-4.5c0.4-1.9-0.8-3.2-2.6-3.5c0.5-2.6-1.6-4.1-3.9-4.5
			c-1-2.7-3.6-3.6-6.2-2.6c-1.2-1.9-3.4-2.6-5.5-1.7c-1.5-1.8-5.1-1.8-6.5,0c-2.1-0.9-4.3-0.2-5.5,1.7c-2.6-1-5.2-0.1-6.2,2.6
			c-2.3,0.3-4.4,1.9-3.9,4.5c-1.8,0.3-3,1.6-2.6,3.5c-2,0.7-2.7,2.5-1.9,4.5c-0.9,0.4-1.7,1.1-1.9,2.1c-0.2,1.1,0.5,2,1.3,2.8
			c-2.3,1.9-0.6,4.5,1.2,6c-2.1,1.8-0.4,3.6,1.5,4.5c-0.9,0.8-1.6,2.2-1.1,3.5c0.4,1.1,1.6,1.7,2.7,2c-0.6,1.2-0.5,2.9,0.4,3.9
			c1,1.1,2.7,1,4,0.6c0.2,1.8,1.1,3.7,3.2,3.7c1.8,0,3.4-1.1,4.4-2.6l1.2,0.8c-0.5,2.1-1.3,4.4-3.3,5.4c-1.7,0.9-3.4,1.7-5.1,2.6
			c-1.9,1-3.9,2-5.8,2.9c-1.9,0.9-3.5,2-4.7,3.8c-1.5,2.4-1.6,5.4-1.9,8.2c-0.2,1.7-0.7,3.5,0.3,5c0.5,0.8,1.3,1.3,2.2,1.8
			c1.1,0.6,2.1,1.2,3.2,1.8c7.7,3.9,16.4,6.1,25.1,5.4c4.8-0.4,9.5-1.6,13.9-3.3c2.4-1,4.8-2.1,7-3.4
			C119.9,97.2,121.8,95.9,121.5,93.3z M84.5,64.5c-1.8-1.2-2.6-3-3-5c-0.1-0.8-0.3-1.5-0.4-2.3c-0.1-0.6-0.2-1-0.9-1.1
			c-0.5-0.1-0.9-0.1-1.3-0.5c-0.9-0.7-1.3-2-1.6-3.1c-0.1-0.4-0.4-1.4-0.1-1.8c0.4-0.4,1.4,0.3,1.9,0.4c0.6,0,1.4-0.4,1.9-0.7
			c1.3-0.9,1.8-2.3,1.5-3.7c1.3-0.3,3.5-1,4.3-3.1c1.3,0.3,2.6,0.2,3.7-0.7c1.7,1.5,4.6,1.5,6.3,0c1.1,0.9,2.4,1,3.7,0.7
			c0.8,2.1,3,2.9,4.3,3.1c-0.5,2.1,0.9,3.8,2.8,4.4c0.7,0.2,1.1-0.2,1.8-0.3c0.4-0.1,0.6-0.1,0.8,0.2c0.3,0.6-0.2,1.8-0.4,2.4
			c-0.3,0.9-0.7,1.9-1.5,2.5c-0.8,0.5-1.8,0.1-2.1,1.2c-0.3,1.1-0.4,2.2-0.6,3.2c-0.4,1.9-1.5,3.4-3.1,4.4c-1.8,1.2-3.5,2.4-5.3,3.6
			c-1.7,1.2-3.5,2.1-5.6,1.1c-1.1-0.6-2.2-1.4-3.2-2.1v0L84.5,64.5z M88.4,69.1c1.6,1.1,3.2,2.3,5.2,2.3s3.6-1.2,5.2-2.3
			c0.5,1.9,1.4,4.1,3.1,5.3c-0.2,3.6-2,7.4-5.4,8.9c-3.3,1.5-7,0.1-9-2.7c-1.3-1.8-2-4-2.1-6.2C87,73.2,87.9,71,88.4,69.1z"/>
	</g>
</g>
</svg>
